<?xml version="1.0" encoding="UTF-8"?>
<!DOCTYPE svg PUBLIC "-//W3C//DTD SVG 1.1//EN" "http://www.w3.org/Graphics/SVG/1.1/DTD/svg11.dtd">
<!-- Creator: CorelDRAW 2020 (64-Bit) -->
<svg xmlns="http://www.w3.org/2000/svg" xml:space="preserve" width="72.8132mm" height="18.6266mm" version="1.1" style="shape-rendering:geometricPrecision; text-rendering:geometricPrecision; image-rendering:optimizeQuality; fill-rule:evenodd; clip-rule:evenodd"
viewBox="0 0 7281.32 1862.66"
 xmlns:xlink="http://www.w3.org/1999/xlink"
 xmlns:xodm="http://www.corel.com/coreldraw/odm/2003">
 <defs>
  <style type="text/css">
   <![CDATA[
    .str2 {stroke:#4CD137;stroke-width:20;stroke-miterlimit:22.9256}
    .str5 {stroke:#D63031;stroke-width:20;stroke-miterlimit:22.9256}
    .str3 {stroke:#F0932B;stroke-width:20;stroke-miterlimit:22.9256}
    .str1 {stroke:#F7B731;stroke-width:20;stroke-miterlimit:22.9256}
    .str0 {stroke:yellow;stroke-width:20;stroke-miterlimit:22.9256}
    .str4 {stroke:yellow;stroke-width:20;stroke-miterlimit:22.9256}
    .fil2 {fill:#4CD137}
    .fil5 {fill:#D63031}
    .fil3 {fill:#F0932B}
    .fil1 {fill:#F7B731}
    .fil0 {fill:yellow}
    .fil4 {fill:yellow}
   ]]>
  </style>
 </defs>
 <g id="Capa_x0020_1">
  <metadata id="CorelCorpID_0Corel-Layer"/>
  <path class="fil0 str0" d="M1468.96 714.02l0 -110.06c169.33,8.46 196.59,-100.67 194.73,-152.4 -1.7,-47.12 -42.33,-152.4 -169.33,-143.94 -258.38,-8.8 -380.95,119.76 -355.6,397.94 -118.53,16.93 -152.64,107.56 -151.93,157.39 0.73,51.68 33.4,138.94 151.93,147.41l0 567.26c0,84.67 107.76,124.24 162.38,124.17 55.43,-0.07 167.82,-31.03 167.82,-124.17l0 -567.26c203.2,-8.47 197.78,-103.46 199.57,-151.75 1.87,-50.61 -4.84,-144.59 -199.57,-144.59z"/>
  <path class="fil0 str0" d="M2103.96 1213.56c76.2,-50.8 56.21,-143.33 32.97,-171.1 -25.48,-30.43 -117.64,-57.5 -185.37,1.76 -59.27,-42.33 -117.65,-39.51 -155.48,-25.5 -33.21,12.31 -55.18,42.73 -64.65,93.24 0,158.04 0,316.09 0,474.13 0,84.67 72.43,116.7 109.28,118.2 39.31,1.61 119.32,-33.53 119.32,-118.2l0 -228.6c0,-33.87 -6,-62.14 16.85,-85.21 24.84,-25.07 68.69,-44.25 127.08,-58.72z"/>
  <path class="fil1 str1" d="M2874.43 1526.82c-8.47,152.4 -210.29,223.02 -315.53,220.84 -100.77,-2.09 -285.61,-51.5 -302.54,-220.84l0 -364.06c0,-84.67 73.49,-126.68 111.52,-126.26 38.18,0.43 108.61,33.12 117.08,126.26l0 287.86c0,67.74 47.63,98.63 73.88,100.17 27.21,1.59 86.99,-23.97 86.99,-100.17l0 -287.86c8.46,-101.6 81.51,-119.46 120.53,-117.74 37.08,1.64 108.07,24.6 108.07,117.74 0,121.35 0,242.71 0,364.06z"/>
  <path class="fil1 str1" d="M3069.16 1247.42c-93.13,0 -122.8,-60.28 -118.95,-96.53 3.36,-31.7 17.35,-98.2 116.83,-98.2 -6.35,-177.8 74.81,-195.19 113.3,-194.5 38.42,0.69 125.89,-0.23 117.42,194.5 127,0 124.79,60.33 126.35,91.91 1.64,33.25 9.12,102.82 -126.35,102.82l0 389.47c0,67.73 -78.26,107.39 -116.29,108.16 -38.2,0.78 -112.31,-31.96 -112.31,-108.16l0 -389.47z"/>
  <path class="fil2 str2" d="M4135.96 1120.42c0,-59.26 -52.23,-82.88 -84.62,-91.92 -34.97,-9.77 -74.68,4.82 -118.58,41.12 -372.53,-143.93 -460.06,215.34 -456.91,320.67 3.1,103.47 58.98,466.73 456.91,305.87 40.24,34.7 76.98,47.65 110.7,41.77 37.11,-6.47 100.97,-33.31 100.97,-84.11l-8.47 -533.4zm-329.33 133.52c57.97,0 104.96,62.64 104.96,139.93 0,77.29 -46.99,139.94 -104.96,139.94 -57.97,0 -104.96,-62.65 -104.96,-139.94 0,-77.29 46.99,-139.93 104.96,-139.93z"/>
  <path class="fil2 str2" d="M4229.09 1636.89c0,59.27 75.29,93.13 110.93,92.53 34.85,-0.58 100.74,-24.8 100.74,-92.53l0 -804.33c0,-59.27 -74,-83.97 -109.79,-83.64 -34.74,0.33 -101.88,24.37 -101.88,83.64l0 804.33z"/>
  <path class="fil2 str2" d="M4542.36 1679.84c0,42.99 75.29,67.55 110.93,67.11 34.85,-0.42 100.74,-17.99 100.74,-67.11l0 -583.41c0,-42.99 -74,-60.9 -109.79,-60.66 -34.74,0.24 -101.88,17.67 -101.88,60.66l0 583.41z"/>
  <circle class="fil2 str2" cx="4648.2" cy="862.19" r="122.77"/>
  <path class="fil3 str3" d="M5490.63 1247.42c-8.47,-101.6 -79.31,-161.91 -140.46,-192.75 -78.07,-39.39 -198.21,-52.78 -291.34,14.95 -101.31,-52.19 -173.62,-39.73 -203.2,67.74l0 482.6c0,84.66 80.78,126.69 118.99,126.38 37.96,-0.31 109.61,-50.18 109.61,-126.38l0 -313.27c0,-59.27 55.1,-86.47 84.55,-85.27 27.08,1.11 84.78,17.54 84.78,85.27l0 313.27c0,84.66 80.58,118.36 120.05,117.91 39.53,-0.46 117.02,-41.71 117.02,-117.91l0 -372.54z"/>
  <path class="fil3 str3" d="M6227.03 1120.42c0,-59.26 -52.23,-82.88 -84.62,-91.92 -34.97,-9.77 -74.68,4.82 -118.58,41.12 -372.53,-143.93 -460.06,215.34 -456.91,320.67 3.1,103.47 58.98,466.73 456.91,305.87 40.24,34.7 76.98,47.65 110.7,41.77 37.11,-6.47 100.97,-33.31 100.97,-84.11l-8.47 -533.4zm-322.41 133.52c57.97,0 104.96,62.64 104.96,139.93 0,77.29 -46.99,139.94 -104.96,139.94 -57.97,0 -104.96,-62.65 -104.96,-139.94 0,-77.29 46.99,-139.93 104.96,-139.93z"/>
  <path class="fil3 str3" d="M1833.03 813.94c0,33.61 42.69,52.8 62.89,52.46 19.76,-0.33 57.12,-14.06 57.12,-52.46l0 -456.02c0,-33.6 -41.96,-47.6 -62.25,-47.42 -19.69,0.19 -57.76,13.82 -57.76,47.42l0 456.02z"/>
  <path class="fil3 str3" d="M2383.59 531.96c0,-32.26 -28.44,-45.12 -46.07,-50.05 -19.04,-5.32 -40.66,2.63 -64.56,22.39 -202.83,-78.36 -250.49,117.25 -248.77,174.59 1.68,56.34 32.11,254.12 248.77,166.54 21.91,18.89 41.91,25.94 60.27,22.74 20.2,-3.52 54.97,-18.13 54.97,-45.79l-4.61 -290.42zm-177.42 66.04c35.07,0 63.5,37.9 63.5,84.66 0,46.76 -28.43,84.66 -63.5,84.66 -35.07,0 -63.5,-37.9 -63.5,-84.66 0,-46.76 28.43,-84.66 63.5,-84.66z"/>
  <circle class="fil4 str4" cx="241.29" cy="925.69" r="220.13"/>
  <circle class="fil3 str3" cx="495.29" cy="1442.16" r="220.13"/>
  <circle class="fil2 str2" cx="677.33" cy="599.72" r="148.17"/>
  <circle class="fil5 str5" cx="905.93" cy="227.19" r="148.17"/>
  <path class="fil5 str5" d="M6557.43 197.56c-156.01,89.59 -231.62,202.39 -254,457.2 -42.33,-289.79 4.66,-425.74 152.4,-550.34 33.86,-25.4 76.85,-8.82 93.81,8.72 14.95,15.48 33.19,59.02 7.79,84.42z"/>
  <path class="fil2 str2" d="M6328.83 603.96c57.82,-14.16 189.97,-0.49 262.46,25.4 237.07,84.66 467.27,-33.21 660.4,-321.74 -80.45,-31.11 -180.62,-49.89 -254,-67.73 -313.25,-76.2 -541.8,1.36 -668.86,364.07z"/>
  <path class="fil5 str5" d="M6032.49 1814.69c728.14,-33.87 890.59,-633.49 787.4,-855.13 -44.17,-94.86 -177.8,-262.47 -508,-228.6 -169.33,-254 -451.07,-232.72 -588.1,-124.24 -117.28,92.83 -258.56,293.57 -199.3,666.1 -25.4,-508 129.21,-541.8 280.24,-599.76 100.74,-38.65 303.96,-52.17 414.03,159.5 270.93,-76.2 444.86,106.17 459.36,217.8 23.63,181.86 90.97,527.26 -645.63,764.33z"/>
 </g>
</svg>
